<svg width="87" height="87" viewBox="0 0 87 87" fill="none" xmlns="http://www.w3.org/2000/svg">
<circle cx="43.5" cy="43.5" r="40.7131" fill="black" stroke="black" stroke-width="5.57382"/>
<path d="M56.9499 52.9511L69.5516 59.0096C70.319 59.3731 71.5387 60.7061 70.2786 63.1295C69.0184 65.5529 64.3413 69.6323 62.1602 71.3691C61.5543 71.3287 59.6641 71.1994 56.9499 71.0056C53.5572 70.7632 49.0738 69.3092 43.2577 67.2493C38.6048 65.6014 31.8677 60.585 29.0808 58.2827C28.1114 57.5559 21.2048 49.8008 18.7814 44.7117C15.5825 38.6047 14.5404 28.7577 14.4193 24.5975C14.5404 24.3148 15.3644 23.1435 17.6908 20.7201C20.0173 18.2967 22.6184 16.5598 23.6282 15.9943C25.0822 15.5097 26.4151 16.681 26.8998 17.3272L33.0794 29.8077C33.5641 30.874 33.2814 31.9484 33.0794 32.3523L30.0502 36.4721C29.0808 37.3445 29.6463 39.0974 30.0502 39.8648C33.1521 47.3289 42.4903 53.8801 46.7716 56.2228C48.0318 57.0952 49.2354 56.5863 49.6797 56.2228L53.5572 53.3146C54.4296 52.3452 56.1825 52.6683 56.9499 52.9511Z" fill="white"/>
</svg>
