<svg width="669" height="379" viewBox="0 0 669 379" fill="none" xmlns="http://www.w3.org/2000/svg">
<path d="M0 345C160.667 370.167 519.4 405.4 669 345C600.167 309.5 370 259.8 0 345Z" fill="#C4C4C4"/>
<path d="M193.5 118V144H213.5V118H193.5Z" fill="#DB3D8A"/>
<path d="M212.334 147H194.666C194.365 146.8 194.541 146.25 194.666 146H212.334C212.635 146.4 212.459 146.833 212.334 147Z" fill="#CFDCE2"/>
<path d="M193.5 144L195.107 146H211.893L213.5 144.167L193.5 144Z" fill="#E6E6DC"/>
<path d="M194.221 116.103C193.644 116.655 193.5 117.598 193.5 118H213.5C213.5 117.655 212.239 115.069 211.698 114.724C211.266 114.448 211.278 113.46 211.338 113H195.482C195.662 113.345 194.941 115.414 194.221 116.103Z" fill="#E67297"/>
<path d="M195.081 113C194.029 113 194.642 112.387 195.081 112.081C200.526 112.02 211.567 111.934 212.168 112.081C212.769 112.228 212.419 112.755 212.168 113H195.081Z" fill="#CECACB"/>
<path d="M243.175 318.596C238.003 319.131 230.021 316.738 226.676 315.475C224.892 315.475 224.001 316.366 223.332 321.049C222.797 324.794 217.758 325.285 215.305 325.062C213.224 324.839 208.215 324.17 204.826 323.278C201.437 322.386 200.441 323.65 200.366 324.393L200.812 335.541C202.002 335.616 206.565 335.943 215.305 336.656C224.045 337.37 234.405 334.575 238.493 333.089C243.621 331.974 252.763 327.069 255.438 324.17C257.579 321.851 254.992 319.488 253.432 318.596H243.175Z" fill="black"/>
<path d="M132.14 333.535C133.21 326.221 117.87 324.096 110.066 323.947C104.715 326.088 99.6615 324.839 97.8035 323.947C95.1279 322.164 88.2161 320.528 85.0946 319.934C80.8137 319.399 78.5544 323.13 77.9598 325.062C77.8855 326.771 77.6922 330.948 77.5139 333.98C77.3355 337.013 78.926 337.919 79.7435 337.994H120.546C131.426 338.351 132.809 335.17 132.14 333.535Z" fill="black"/>
<path d="M97.8035 323.947C95.9455 322.981 91.516 320.959 85.0946 320.067L89.108 310.57C90.2228 308.117 93.7456 303.123 94.4591 286.712C95.1726 270.302 109.323 245.539 116.309 235.208H137.714C136.109 244.483 129.613 254.829 126.566 258.842C120.546 269.842 107.658 294.204 104.269 303.658C99.6318 311.328 106.202 320.38 110.066 323.947C104.715 326.088 99.6615 324.839 97.8035 323.947Z" fill="#F3B096"/>
<path d="M221.548 323.732C217.675 326.115 211.738 324.616 204.986 323.732L202.487 313.729C201.904 311.099 198.286 305.164 188.995 291.618C179.704 278.073 176.241 254.353 175.618 241.898L194.792 230.526C199.083 238.904 198.607 245.999 198.583 251.038C200.381 263.448 208.989 290.72 211.961 300.313C214.933 309.906 220.106 314.722 225.338 315.251C222.347 320.178 224.446 321.948 221.548 323.732Z" fill="#F3B096"/>
<path d="M112.965 234.985H144.403C143.511 228.207 147.004 219.526 148.862 216.033C147.257 213.001 138.034 204.142 133.5 200.5C125.473 198.36 120.546 187.642 119.208 182.143C121.705 193.38 120.992 198.419 120.323 199.534C116.934 209.166 114.005 227.181 112.965 234.985Z" fill="#84B777"/>
<path d="M120.323 164.306C117.112 167.338 117.647 171.069 118.316 172.555C157.914 168.274 171.976 168.988 174.057 169.88C174.592 168.274 173.388 159.698 172.719 155.61C170.4 151.508 171.158 132.496 171.827 123.503L168.483 85.3768C168.929 82.181 168.26 72.3111 162.017 58.3982C155.774 44.4853 146.632 46.3582 142.842 49.0337C133.032 53.1362 126.417 67.9856 124.336 74.8974L120.323 110.349C118.762 112.801 121.438 138.665 121.883 144.908C122.24 149.902 120.992 153.826 120.323 155.164C118.182 159.445 119.431 163.042 120.323 164.306Z" fill="#84B777"/>
<path d="M155.105 100.092C160.099 100.271 161.645 99.4233 161.794 98.9774L160.233 81.3633C159.862 76.6068 158.672 66.0681 156.889 61.9656C155.105 57.863 151.984 56.0942 150.646 55.7225C149.382 55.7969 146.32 55.9009 144.18 55.7225C141.504 55.4996 141.058 56.3914 136.153 59.29C132.229 61.6088 129.167 68.7287 128.126 71.9988L130.133 100.761L155.105 100.092Z" fill="#384138"/>
<path d="M197.468 228.073L194.792 230.749L175.618 241.897L164.692 246.356C163.355 239.221 153.99 223.614 149.308 216.702C145.562 211.172 136.896 204.142 133.032 201.317C120.189 195.431 118.019 179.541 118.539 172.332C135.93 170.623 171.337 167.695 173.834 169.657C176.331 171.619 177.699 180.731 178.07 185.041C179.111 187.122 182.619 193.648 188.326 203.101C194.034 212.555 196.799 223.688 197.468 228.073Z" fill="#384138"/>
<path d="M169.375 48.1421C165.45 49.9258 163.872 58.5812 163.5 62C157.614 46.8385 147.236 46.8447 143 49L147.524 38.5547C149.308 38.0195 151.389 35.5075 152.206 34.3184L169.375 48.1421Z" fill="#EE9471"/>
<path d="M141.95 23.8389C143.912 26.3361 146.484 34.6898 147.524 38.5544C148.773 38.5544 151.166 35.7303 152.206 34.3182C154.169 34.1399 155.254 29.636 155.551 27.4064C155.848 26.3659 157.513 24.4633 161.794 25.1768C166.075 25.8902 168.483 23.5417 169.152 22.2782C169.152 20.8661 169.285 17.4622 169.821 15.1433C170.356 12.8244 176.732 10.7584 179.854 10.0153C179.14 2.70208 171.53 0.427796 167.814 0.204803C157.781 -0.687049 152.652 1.54258 147.747 2.88036C143.823 3.95058 142.099 11.5016 141.727 15.1433L141.95 23.8389Z" fill="#3D3113"/>
<path d="M176.063 48.1418H169.375L152.206 34.3182C152.875 34.5411 154.391 33.783 155.105 28.967C155.818 24.151 161.645 24.4335 164.469 25.1767C166.327 25.028 169.91 23.4375 169.375 18.2648C168.706 11.7988 177.847 9.79216 178.962 10.2381C179.854 10.5948 179.928 20.0485 179.854 24.7307C182.173 25.9793 182.901 30.0075 182.975 31.8655L179.854 32.5344V44.5744C179.854 47.0716 177.327 47.9932 176.063 48.1418Z" fill="#F6AE95"/>
<path d="M136 100.5L154.5 100L157.5 118.5C159 125.5 179.743 122.612 181.5 122.612C188 122.612 188 124.112 199 126C201.5 125.167 207.1 123.9 209.5 125.5C211.9 127.1 206 129.333 202 130C204.167 130.5 208 131.6 212 134C216 136.4 208 135.333 202 134L208.5 136.5C216.1 140.1 207.667 139.167 200.5 137.5C203 138.333 204.5 139.2 206.5 142C208.5 144.8 203.667 142.833 199 140.5C201.833 142 203.6 143.6 204 146C204.4 148.4 196.167 143.333 192 140.5C179 132 151 143 141 124.5C137.433 119.684 136.52 105.777 136 100.5Z" fill="#F3B096"/>
<path d="M350.567 310.5C350.567 310.5 350.067 226.215 350.5 226C350.933 225.785 347.067 234 390.567 235C429.858 235.903 432.436 227.425 432.567 225.775V225.5C432.567 225.5 432.581 225.598 432.567 225.775V310.5C431.067 315.5 426.567 320 388.067 320C357.267 320 350.234 313.667 350.567 310.5Z" fill="#3C819E"/>
<ellipse cx="391.567" cy="226.5" rx="41" ry="8.5" fill="#C4C4C4" fill-opacity="0.4"/>
</svg>
