<svg width="159" height="159" viewBox="0 0 159 159" fill="none" xmlns="http://www.w3.org/2000/svg">
<g filter="url(#filter0_f_202_95)">
<circle cx="79.5" cy="79.5" r="75.5" fill="#E5EEE7"/>
</g>
<path d="M79.5 71.5069C81.9 67.1069 70.8333 64.0069 65 63.0069C68 62.3402 74.7 61.5069 77.5 63.5069C80.3 65.5069 81 63.6736 81 62.5069C79.6667 59.3402 75.5 53.5069 69.5 55.5069C63.5 57.5069 57.6667 61.6735 55.5 63.5069C62.3 75.1069 69 77.0069 71.5 76.5069C73.1667 76.6735 77.1 75.9069 79.5 71.5069Z" fill="#45D575"/>
<path fill-rule="evenodd" clip-rule="evenodd" d="M92.6527 32.6563C93.3259 31.491 93.9548 31.0298 94.5 31.5069C93.9429 31.8188 93.3167 32.2047 92.6527 32.6563Z" fill="#45D575"/>
<path d="M80 47.5069C82.4 50.3069 83.3333 48.6735 83.5 47.5069C82.4604 41.2695 88.3503 35.5825 92.6527 32.6563C93.3259 31.491 93.9548 31.0298 94.5 31.5069C93.9429 31.8188 93.3167 32.2047 92.6527 32.6563C88.3871 40.0398 82.3408 75.6884 84.5 80.0068C86.5 84.0068 91.5 81.5068 91.5 81.5068C91.5 81.5068 94.8333 76.0068 97 73.5068C104.6 78.7068 110.167 76.3402 112 74.5068C113.2 74.9068 120.5 63.0069 120.5 63.0069C120.5 63.0069 119.5 60.5068 110.5 56.5068C103.3 53.3068 98.1667 57.5068 96.5 60.0068C93.7 64.0068 95.6667 64.3402 97 64.0068C99.7642 61.6375 106.329 62.6468 109.383 63.4748C103.775 61.9983 94.8068 68.5311 91 72.0068L92.5 54.0069C113.5 49.5069 106 22.5069 106 23.0069C106 23.5069 103 24.0069 89.5 26.0069C76 28.0069 77 44.0069 80 47.5069Z" fill="#45D575"/>
<path d="M23 112.007L47.5 136.507L55.5 124.007H93C96.1667 123.84 103.3 122.507 106.5 118.507C109.7 114.507 127.5 99.1736 136 92.007C137.167 89.6736 137 85.307 127 86.507C117 87.707 102.5 101.34 96.5 108.007H80.5L76 104.007L92 103.507C94.5 103.34 99.6 101.507 100 95.5069C100.4 89.5069 94.8333 87.6736 92 87.5069H77C72.8333 85.5069 63.2 81.9069 58 83.5069C51.5 85.5069 48.5 86.5069 42.5 93.0069C37.7 98.2069 27.5 107.84 23 112.007Z" fill="#B9B48D"/>
<defs>
<filter id="filter0_f_202_95" x="0" y="0" width="159" height="159" filterUnits="userSpaceOnUse" color-interpolation-filters="sRGB">
<feFlood flood-opacity="0" result="BackgroundImageFix"/>
<feBlend mode="normal" in="SourceGraphic" in2="BackgroundImageFix" result="shape"/>
<feGaussianBlur stdDeviation="2" result="effect1_foregroundBlur_202_95"/>
</filter>
</defs>
</svg>
