<svg xmlns="http://www.w3.org/2000/svg" width="84" height="84" fill="none" xmlns:v="https://vecta.io/nano"><circle cx="42" cy="42" r="42" fill="#000"/><g fill="#fff"><path d="M38.339 27.246c-2.412 1.034-5.241 4.308-6.354 5.815-.752.948-1.821.395-2.262 0-.826-.718-3.102-2.563-5.6-4.2s-2.262-2.692-1.831-3.015c0-.359.819-2.003 4.092-5.708 4.092-4.631 12.492-7.215 19.923-5.815 5.945 1.12 10.518 5.421 12.062 7.431 1.723 1.4 3.662 5.492 3.662 8.831.603 3.791-1.544 7.61-2.692 9.046-.862 1.637-5.815 4.774-8.185 6.139-2.908 2.262-2.908 4.523-2.908 5.277 0 .603-.79.969-1.185 1.077H36.292c-1.292 0-1.759-.718-1.831-1.077v-4.092c.603-3.36 3.626-6.282 5.062-7.323.948-1.378 5.205-3.661 7.215-4.631 3.338-3.338.646-6.031-.431-7s-4.954-2.046-7.969-.754z"/><rect x="34.462" y="55.569" width="13.785" height="13.785" rx="6.892"/></g></svg>